            <svg fill="red" xmlns="http://www.w3.org/2000/svg" viewBox="0 0 145 51" class="hd-Logo_Svg-desktop"><path d="M12.7443 12.7415c-.2073-.4421-.5159-.8293-.9006-1.13-.3902-.3156-.8415-.547-1.3254-.6797-.5056-.1601-1.03303-.2404-1.56333-.2379H5.94733v7.1963h3.07561c.51839.0006 1.03396-.0768 1.52936-.2294.4675-.1416.9032-.3724 1.2829-.6797.3838-.3004.6946-.6838.9091-1.1215.2304-.4883.3438-1.0235.3313-1.5633.01-.5368-.1034-1.0687-.3313-1.5548zM11.045 4.87406c-.1603-.32801-.3892-.61775-.6712-.84962-.2999-.24879-.65087-.42862-1.028-.52676-.38463-.12172-.78606-.18194-1.18947-.17842h-2.209V8.7823h2.25998c.76203.01229 1.50744-.22326 2.12409-.6712.3068-.23418.5511-.54049.7112-.89175.1601-.35127.2309-.73661.2063-1.12184.0295-.41819-.0404-.83741-.2039-1.22345zm3.9083 11.82664c-.3274.671-.7937 1.2647-1.3679 1.7418-.5617.4708-1.2075.8312-1.9032 1.062-.695.236-1.424.3565-2.15798.3568H3.67885V1.34814h4.81733c.63824.00055 1.27224.10382 1.87762.30587.5931.19877 1.1436.50714 1.6228.90909.4896.41452.8912.92298 1.181 1.49532.3163.63231.4738 1.33221.4588 2.03909.0025.70344-.1728 1.39611-.5098 2.01359-.2968.58393-.7817 1.05085-1.3764 1.32541.4955.12088.9648.33105 1.3849.62019.9217.6115 1.6195 1.5061 1.9881 2.5489.2031.5434.3067 1.119.3059 1.6992.0181.831-.1595 1.6547-.5183 2.4044M29.3033 5.17992c-.1821-.37416-.443-.70456-.7646-.96856-.3296-.26493-.7035-.46918-1.1045-.60323-.4269-.13028-.8707-.19614-1.317-.19541h-2.5488v6.17672h2.6168c.4458.00348.8897-.05952 1.3169-.18692.4011-.12173.7758-.31771 1.1045-.57774.3177-.2658.5754-.59591.7562-.96856.1909-.42116.2839-.88014.2719-1.3424.01-.46117-.089-.91819-.2889-1.3339h-.0425zm2.7273 14.68138l-5.9473-8.3008h-2.5489v8.3008H21.181V1.34814h5.3441c.6787.00566 1.3524.11746 1.9966.33136.6448.23248 1.2431.57769 1.7672 1.01954.5333.43377.9654.97893 1.2659 1.59728.3263.68696.4891 1.44012.4758 2.20051.0366 1.08482-.3126 2.14749-.9856 2.99915-.637.79562-1.4938 1.38652-2.4639 1.69922l6.4146 8.6661h-2.9651zM74.1631 19.8613l-.7561-8.9635c-.0595-.6966-.1105-1.4443-.1615-2.23445-.0509-.79014-.0934-1.5548-.1274-2.29396h-.051c-.3143.71367-.6712 1.49532-1.0875 2.33644l-1.1215 2.27697-4.4775 8.9975H65.48l-4.5284-8.9975c-.3229-.6542-.6882-1.39336-1.0705-2.21749-.3824-.82413-.7477-1.59728-1.0791-2.33645h-.0509c-.0425.75616-.085 1.52931-.136 2.33645-.051.80713-.1019 1.51229-.1614 2.13249l-.7477 8.9635h-2.124l1.5378-18.51316h1.5038l4.9958 9.95756c.3823.7476.7901 1.5718 1.2319 2.4469.4418.8751.8496 1.6992 1.1385 2.5488h.0595c.3313-.7901.6967-1.6228 1.1045-2.4809.4078-.8581.8496-1.6992 1.2234-2.5488l4.9703-9.92356h1.5123l1.6058 18.51316h-2.3025zM96.7035 7.49949c-.3898-.8896-.953-1.69256-1.6568-2.36194-1.0189-.96939-2.2949-1.62568-3.6761-1.89077-1.3812-.26509-2.8094-.12783-4.1149.39544-.8747.33966-1.6743.8477-2.3534 1.49533-.6933.67464-1.25 1.47658-1.6398 2.36194-.4252.98968-.6366 2.05804-.6202 3.13511-.017 1.0826.1944 2.1566.6202 3.1521.3875.8916.9444 1.6995 1.6398 2.3789.6791.6476 1.4787 1.1557 2.3534 1.4953.868.3452 1.7932.5239 2.7273.5268 1.8952.002 3.7192-.7216 5.0977-2.0221.706-.6741 1.2694-1.483 1.6568-2.3789.4259-.9955.6372-2.0695.6202-3.1521.0164-1.07707-.195-2.14543-.6202-3.13511h-.034zm2.226 7.09431c-.5162 1.1477-1.2589 2.1794-2.1835 3.0331-.9085.8317-1.9666 1.4833-3.1181 1.9202-2.3469.8983-4.9429.8983-7.2897 0-1.1375-.4513-2.1806-1.1112-3.0757-1.9457-.9351-.8421-1.6895-1.8653-2.2175-3.0076-.5691-1.2508-.859-2.6105-.8496-3.9847-.0083-1.36312.2817-2.71154.8496-3.95073.5265-1.15552 1.2807-2.19292 2.2175-3.05013 1.8513-1.68121 4.2623-2.612635 6.763-2.612635s4.9117.931425 6.7629 2.612635c.9646.88414 1.7302 1.96334 2.2458 3.16595.5156 1.20262.7695 2.50115.7449 3.80941.0054 1.3738-.2843 2.7326-.8496 3.9847M120.646 20.2182l-8.887-9.8726c-.731-.84962-1.487-1.69924-2.26-2.54886-.773-.84961-1.479-1.75021-2.124-2.54885h-.051c.034.84962.051 1.68224.051 2.49788V19.8613h-2.379V1.34814h1.699l8.275 9.26086c.289.3313.604.6882.952 1.0705s.705.7901 1.062 1.2065l1.062 1.2489.9 1.1725h.051c0-.7732-.051-1.5463-.051-2.328V1.34814h2.379V20.2182h-.679zM140.756 1.34814h-14.69v2.06458h6.16V19.8613h2.379V3.41272h5.132l1.019-2.06458zM41.8437 17.8052v-6.2107h6.1852V9.52996h-6.1852V3.41272h6.4146l1.011-2.06458h-9.8046V19.8613h10.8582v-2.0561h-8.4792zM72.2175 28.9865c.4664.0009.9272.1023 1.3509.2974h.0595l.1019.0509c.2592.1232.5042.2741.7307.4503-.5438-1.5972-2.7867-1.8861-3.8828-1.5972-2.9056.6796-2.7187 2.107-7.1877 3.0246-2.243.3144-5.2846.4163-10.1105.5777L0 30.9746c1.97111 5.0127 28.5557 4.5115 50.6032 2.7103 5.9474-.3569 14.7324-.9771 18.4792-1.6483.0183-.245.0639-.4872.136-.7222.1589-.6721.5432-1.2696 1.0888-1.6931s1.2197-.6475 1.9103-.6348M93.8318 30.0483c-5.9473.3654-14.7324.9856-18.4792 1.6993 0 .1274 0 .2464-.051.3738-.081.7539-.4437 1.4493-1.0156 1.9471-.5719.4978-1.3107.7613-2.0685.7377-.6565 0-1.2971-.2016-1.8352-.5777-.1544-.0913-.302-.1935-.4418-.3059.5778 1.6398 2.8038 1.9201 3.8998 1.6992 2.9057-.6797 2.7188-2.107 7.1877-3.0161 2.243-.3229 5.2847-.4248 10.1105-.5777l53.2795.7731c-1.971-5.0042-28.556-4.5115-50.6032-2.7103M35.7434 46.5141c-.4149-.2241-.8793-.3409-1.3509-.3398-.5723 0-1.1212.2273-1.5259.632-.4047.4048-.6321.9537-.6321 1.526s.2274 1.1212.6321 1.526c.4047.4047.9536.632 1.5259.632.4806.0186.9569-.0961 1.3764-.3313l-.051.5182c-.4237.211-.8953.3076-1.3679.2804-.6985 0-1.3684-.2775-1.8623-.7714-.494-.4939-.7715-1.1639-.7715-1.8624 0-.6985.2775-1.3684.7715-1.8624.4939-.4939 1.1638-.7714 1.8623-.7714.5218-.0133 1.0386.1035 1.5039.3398l-.1105.4843zM42.4469 50.9064v-2.3619h-2.9652v2.3619h-.5437v-5.1657h.5437v2.328h2.9652v-2.328h.5438v5.1657h-.5438zM49.3713 50.9064l-1.6992-2.3619h-.8497v2.3619h-.5437v-5.1657h1.4273c.1971-.02.3962.0012.5847.0622.1884.0611.3621.1608.51.2926.1478.1319.2666.2931.3487.4734.0822.1802.1259.3756.1284.5737.0047.3026-.0937.5978-.279.8371-.1852.2393-.4464.4085-.7405.4798l1.8182 2.4469h-.7052zm-1.6992-4.6899h-.7987v1.8607h.8496c.1298.0117.2606-.0035.3844-.0444.1237-.041.2376-.1069.3348-.1938.0972-.0868.1755-.1926.2301-.311.0546-.1183.0843-.2466.0873-.3769-.0042-.1318-.0351-.2613-.0911-.3807-.0559-.1194-.1356-.2261-.2343-.3136-.0986-.0875-.2141-.154-.3393-.1953-.1252-.0413-.2575-.0566-.3889-.045M55.0637 50.9998c-.5274-.0067-1.0412-.1691-1.4766-.4668-.4354-.2978-.7732-.7176-.9708-1.2067-.1976-.489-.2463-1.0256-.1399-1.5423.1064-.5166.3631-.9904.7379-1.3616.3747-.3712.8508-.6234 1.3685-.7249.5176-.1015 1.0537-.0478 1.5409.1544.4872.2023.9038.544 1.1974.9822.2936.4382.4512.9534.4529 1.4809.0035.3557-.0644.7085-.1997 1.0375-.1353.329-.3352.6275-.588.8778-.2527.2503-.553.4474-.8833.5796-.3302.1322-.6836.1968-1.0393.1899zm0-4.8683c-.4369-.0084-.8665.1134-1.2339.3501-.3674.2366-.656.5772-.8291.9785-.1731.4013-.2228.845-.1427 1.2746.08.4296.2862.8257.5922 1.1377.3059.312.6979.5258 1.1259.6142.428.0884.8726.0474 1.2771-.1178.4046-.1652.7508-.4472.9945-.8099.2438-.3628.374-.7899.3741-1.2269.0092-.2878-.04-.5746-.1447-.8429-.1046-.2684-.2626-.5127-.4642-.7184-.2017-.2056-.4429-.3683-.7092-.4781-.2662-.1099-.552-.1647-.84-.1611zM65.1912 50.9914l-2.5489-2.8802c-.4248-.4758-.9006-1.0536-1.2574-1.4869v4.2736h-.5438v-5.1572h.3824l2.3959 2.7358c.3568.3993.8496.9601 1.1724 1.3849V45.7407h.5438v5.2507h-.1444zM71.147 50.9999c-.5279-.005-1.0424-.166-1.479-.4628-.4366-.2967-.7756-.7159-.9745-1.2049-.1989-.4889-.2488-1.0258-.1434-1.543.1055-.5173.3615-.9918.7359-1.3638.3745-.3721.8506-.6252 1.3685-.7273.5179-.1022 1.0544-.0489 1.5421.153.4877.202.9048.5437 1.1987.9822.294.4384.4518.954.4535 1.4818.0034.355-.0642.7071-.199 1.0355-.1348.3284-.3339.6265-.5857.8767-.2518.2502-.5512.4475-.8804.5802-.3293.1327-.6818.1981-1.0367.1924zm0-4.8683c-.4373-.0101-.8676.1103-1.2361.3458-.3685.2356-.6585.5756-.8329.9767s-.2253.8451-.1462 1.2752c.079.4302.2845.827.5901 1.1399.3056.3129.6975.5276 1.1257.6167.4282.0891.8732.0486 1.2783-.1163.4051-.165.7518-.4469.9959-.8098.2442-.3629.3746-.7903.3747-1.2277.008-.2868-.0418-.5723-.1463-.8396-.1046-.2672-.2618-.5107-.4623-.716-.2005-.2052-.4403-.3681-.705-.4789-.2647-.1108-.549-.1672-.8359-.166M81.9796 50.9064l-.2124-2.6848c0-.4333-.068-.9006-.085-1.3424-.1784.4333-.4418.9601-.6457 1.3764l-1.2999 2.6848h-.2039l-1.3084-2.6848c-.1954-.3908-.4333-.9176-.6287-1.3679 0 .4418-.051.9516-.085 1.3339l-.1954 2.6848h-.5013l.4163-5.1657h.3569l1.4188 2.8887c.2209.4503.4673.9771.6712 1.4529.1955-.4673.4333-.9686.6627-1.4529l1.4104-2.8887h.3484l.4333 5.1657h-.5523zM85.65 50.9064v-5.1657h2.6933v.4673h-2.1496v1.8607h1.7672v.4758h-1.7672v1.8946h2.4384v.4673H85.65zM93.2455 46.208v4.6984h-.5352V46.208h-1.7757v-.4673h4.0951v.4673h-1.7842zM97.8335 50.9064v-5.1657h2.7015v.4673h-2.1578v1.8607h1.7668v.4758h-1.7668v1.8946h2.4388v.4673h-2.9825zM106.695 50.9065l-1.699-2.3619h-.85v2.3619h-.493v-5.1656h1.428c.193-.0127.386.014.569.0784.182.0644.35.1652.492.2964.142.1311.256.2897.335.4663.079.1765.122.3673.125.5607.004.3026-.094.5978-.279.8372-.186.2393-.447.4085-.741.4797l1.818 2.4469h-.705zm-1.699-4.6898h-.799v1.8606h.85c.13.0117.26-.0034.384-.0444s.238-.1069.335-.1937c.097-.0869.175-.1927.23-.3111.055-.1183.084-.2466.087-.3769-.003-.1322-.033-.2623-.088-.3823-.056-.12-.136-.2272-.234-.315-.099-.0877-.215-.1541-.341-.1949-.126-.0408-.259-.0552-.39-.0423M111.138 50.949c-.479.0099-.95-.1264-1.35-.3909l-.068-.5862c.407.3322.918.5124 1.444.5098.134.0166.27.005.399-.034s.249-.1046.352-.1926c.102-.088.185-.1965.243-.3184.058-.1219.09-.2546.093-.3896 0-.5438-.314-.8496-1.028-1.1045-.909-.3229-1.333-.7562-1.333-1.4614.003-.1872.045-.3717.125-.5413.08-.1695.194-.3203.336-.4423.142-.122.309-.2125.488-.2656.18-.053.369-.0674.554-.0422.382-.0024.758.0974 1.088.2889l-.119.4673c-.291-.1982-.634-.3048-.986-.3059-.117-.0167-.237-.0086-.351.0239-.115.0324-.221.0885-.312.1646-.091.076-.166.1704-.218.277-.053.1065-.082.2229-.087.3417 0 .4333.289.7221.926.9515.909.3314 1.461.7477 1.461 1.6058.001.2085-.043.4148-.129.6048-.086.1899-.212.3592-.369.4962-.157.137-.342.2386-.542.2979-.2.0592-.41.0747-.617.0455" fill="currentColor"></path></svg>
